<svg xmlns="http://www.w3.org/2000/svg" width="74.32" height="28.568" viewBox="0 0 74.32 28.568">
  <g id="Group_7" data-name="Group 7" transform="translate(0 -0.002)">
    <path id="Path_6" data-name="Path 6" d="M125.354,30.049l-10.026-14.5L124.186,2.74H113.329L94.45,30.049H105.3l4.6-6.652,4.6,6.652Z" transform="translate(-51.034 -1.48)" fill="#fff"/>
    <path id="Path_7" data-name="Path 7" d="M70.878,2.74,67.513,16.167,64.148,2.74H55.24L51.875,16.167,49.931,9.152,43.61,18.3l3.319,11.754h9.106l3.641-15.436,3.236,13.574L80.094,2.74Z" transform="translate(-23.564 -1.48)" fill="#fff"/>
    <path id="Path_8" data-name="Path 8" d="M7.608,27.016l4.758-7.033a5.73,5.73,0,1,1,6.344-9.377l5.1-7.548A14.8,14.8,0,0,0,4.33,25.269a14.661,14.661,0,0,0,2.919,2.266Z" transform="translate(0 0)" fill="#fff"/>
  </g>
</svg>
