<svg xmlns="http://www.w3.org/2000/svg" width="4.483" height="17.317" viewBox="0 0 4.483 17.317">
  <path id="Path_10" data-name="Path 10" d="M3.263,4.714v0a.923.923,0,0,1-.376-.743V1.193c0-.14.163-.087.163-.21v-.6A.048.048,0,0,0,3,.334H2.75V0H1.7V.334h-.22a.045.045,0,0,0-.048.048v.6c0,.123.163.068.163.21V3.971a.927.927,0,0,1-.376.743v0A2.233,2.233,0,0,0,0,6.707H0a.235.235,0,0,0,0,.035V16.82a.5.5,0,0,0,.5.5H3.986a.5.5,0,0,0,.5-.5V6.74a.212.212,0,0,0,0-.033h0A2.244,2.244,0,0,0,3.263,4.714Z" transform="translate(0 0)" fill="#fcf8c5"/>
</svg>
