<svg xmlns="http://www.w3.org/2000/svg" width="20.189" height="77.979" viewBox="0 0 20.189 77.979">
  <path id="Path_28" data-name="Path 28" d="M14.691,21.226v-.008A4.155,4.155,0,0,1,13,17.873V5.373c0-.632.733-.39.733-.944V1.723a.218.218,0,0,0-.218-.218H12.383V0H7.665V1.5h-.99a.2.2,0,0,0-.218.218V4.437c0,.554.733.3.733.944v12.5A4.172,4.172,0,0,1,5.5,21.226v.008A10.055,10.055,0,0,0,0,30.2H.016A1.057,1.057,0,0,0,0,30.357V75.741a2.243,2.243,0,0,0,2.238,2.238H17.951a2.243,2.243,0,0,0,2.238-2.238V30.349a.956.956,0,0,0-.016-.148h.016A10.105,10.105,0,0,0,14.691,21.226Z" transform="translate(0 0)" fill="#fcf8c5"/>
</svg>
